<mxfile host="app.diagrams.net" modified="2023-04-12T09:52:52.587Z" agent="Mozilla/5.0 (Windows NT 10.0; Win64; x64) AppleWebKit/537.36 (KHTML, like Gecko) Chrome/111.0.0.0 Safari/537.36" version="21.1.7" etag="3Zwe2t6OsUo5_TrmMDdR" type="github">
  <diagram name="第 1 页" id="oJ4xk5tt34lPXBs1zRtm">
    <mxGraphModel>
      <root>
        <mxCell id="0" />
        <mxCell id="1" parent="0" />
      </root>
    </mxGraphModel>
  </diagram>
</mxfile>
